# Blender 3.6.4
# www.blender.org
o CarBody
v -2.314160 -0.701281 -1.871083
v 4.000000 -2.000000 -2.000000
v -2.096631 -0.722706 -1.871086
v 4.000000 -2.000000 2.000000
v -1.887461 -0.786157 -1.871094
v -4.000000 -2.000000 -2.000000
v -1.694689 -0.889196 -1.871108
v -4.000000 -2.000000 2.000000
v -1.525723 -1.027863 -1.871127
v -1.387056 -1.196829 -1.871150
v -1.284017 -1.389601 -1.871177
v -1.220566 -1.598771 -1.871205
v -1.199141 -1.816301 -1.871235
v -3.429180 -1.816301 -1.871235
v -3.407755 -1.598771 -1.871205
v -3.344304 -1.389601 -1.871177
v -3.241265 -1.196829 -1.871150
v -3.102598 -1.027863 -1.871127
v -2.933632 -0.889196 -1.871108
v -2.740860 -0.786157 -1.871094
v -2.531690 -0.722706 -1.871086
v 2.314160 -0.701281 -1.871083
v 2.096631 -0.722706 -1.871086
v 1.887461 -0.786157 -1.871094
v 1.694689 -0.889196 -1.871108
v 1.525723 -1.027863 -1.871127
v 1.387056 -1.196829 -1.871150
v 1.284017 -1.389601 -1.871177
v 1.220566 -1.598771 -1.871205
v 1.199141 -1.816301 -1.871235
v 3.429180 -1.816301 -1.871235
v 3.407755 -1.598771 -1.871205
v 3.344304 -1.389601 -1.871177
v 3.241265 -1.196829 -1.871150
v 3.102598 -1.027863 -1.871127
v 2.933632 -0.889196 -1.871108
v 2.740860 -0.786157 -1.871094
v 2.531690 -0.722706 -1.871086
v -2.314160 -0.701281 1.871083
v -2.096631 -0.722706 1.871085
v -1.887461 -0.786157 1.871094
v -1.694689 -0.889196 1.871108
v -1.525723 -1.027863 1.871127
v -1.387056 -1.196829 1.871150
v -1.284017 -1.389601 1.871177
v -1.220566 -1.598771 1.871205
v -1.199141 -1.816301 1.871235
v -3.429180 -1.816301 1.871235
v -3.407755 -1.598771 1.871205
v -3.344304 -1.389601 1.871177
v -3.241265 -1.196829 1.871150
v -3.102598 -1.027863 1.871127
v -2.933632 -0.889196 1.871108
v -2.740860 -0.786157 1.871094
v -2.531690 -0.722706 1.871085
v 2.314160 -0.701281 1.871083
v 2.096631 -0.722706 1.871085
v 1.887461 -0.786157 1.871094
v 1.694689 -0.889196 1.871108
v 1.525723 -1.027863 1.871127
v 1.387056 -1.196829 1.871150
v 1.284017 -1.389601 1.871177
v 1.220566 -1.598771 1.871205
v 1.199141 -1.816301 1.871235
v 3.429180 -1.816301 1.871235
v 3.407755 -1.598771 1.871205
v 3.344304 -1.389601 1.871177
v 3.241265 -1.196829 1.871150
v 3.102598 -1.027863 1.871127
v 2.933632 -0.889196 1.871108
v 2.740860 -0.786157 1.871094
v 2.531690 -0.722706 1.871085
v 1.887461 -0.786140 2.000000
v 2.096631 -0.722689 2.000000
v 2.314160 -0.701264 2.000000
v 2.740860 -0.786140 2.000000
v 2.531690 -0.722689 2.000000
v 3.407755 -1.598754 2.000000
v 3.344304 -1.389584 2.000000
v 3.241265 -1.196812 2.000000
v 3.102598 -1.027846 2.000000
v 2.933632 -0.889179 2.000000
v -3.411085 -2.000000 2.000000
v -3.429180 -1.816283 2.000000
v -3.407755 -1.598754 2.000000
v -3.344304 -1.389584 2.000000
v -3.241265 -1.196811 2.000000
v -3.102598 -1.027845 2.000000
v -2.531690 -0.722688 2.000000
v -2.740860 -0.786140 2.000000
v -2.096631 -0.722688 2.000000
v -1.694689 -0.889178 2.000000
v -1.887461 -0.786140 2.000000
v -2.314160 -0.701264 2.000000
v -1.525723 -1.027845 2.000000
v -2.933632 -0.889178 2.000000
v 1.199141 -1.816283 2.000000
v -1.199141 -1.816283 2.000000
v 1.217236 -2.000000 2.000000
v -1.217235 -2.000000 2.000000
v 1.694689 -0.889179 2.000000
v 3.429180 -1.816283 2.000000
v 3.411086 -2.000000 2.000000
v 1.220566 -1.598754 2.000000
v 1.284017 -1.389584 2.000000
v 1.387056 -1.196812 2.000000
v 1.525723 -1.027846 2.000000
v -1.220566 -1.598754 2.000000
v -1.284017 -1.389584 2.000000
v -1.387056 -1.196811 2.000000
v -3.411087 -2.000000 -1.871260
v -3.411085 -2.000000 -2.000000
v -1.217234 -2.000000 -1.871260
v -1.217235 -2.000000 -2.000000
v 1.217234 -2.000000 -1.871260
v 1.217236 -2.000000 -2.000000
v 3.411087 -2.000000 -1.871260
v 3.411086 -2.000000 -2.000000
v -3.411087 -2.000000 1.871260
v 1.217234 -2.000000 1.871260
v 3.411087 -2.000000 1.871260
v -1.217234 -2.000000 1.871260
v -3.407755 -1.598753 -2.000000
v -3.344304 -1.389583 -2.000000
v -3.241265 -1.196811 -2.000000
v -3.102598 -1.027845 -2.000000
v -2.933632 -0.889178 -2.000000
v -2.740860 -0.786139 -2.000000
v -2.531690 -0.722688 -2.000000
v -2.096631 -0.722688 -2.000000
v -1.887461 -0.786139 -2.000000
v -2.314160 -0.701264 -2.000000
v -3.429180 -1.816283 -2.000000
v -1.525723 -1.027845 -2.000000
v -1.284017 -1.389583 -2.000000
v -1.387056 -1.196811 -2.000000
v -1.694689 -0.889178 -2.000000
v -1.199141 -1.816283 -2.000000
v 1.199141 -1.816283 -2.000000
v 1.220566 -1.598754 -2.000000
v -1.220566 -1.598753 -2.000000
v 1.284017 -1.389584 -2.000000
v 1.387056 -1.196812 -2.000000
v 1.887461 -0.786140 -2.000000
v 1.694689 -0.889178 -2.000000
v 2.314160 -0.701264 -2.000000
v 2.740860 -0.786140 -2.000000
v 2.531690 -0.722689 -2.000000
v 2.096631 -0.722689 -2.000000
v 3.429180 -1.816283 -2.000000
v 3.407755 -1.598754 -2.000000
v 3.344304 -1.389584 -2.000000
v 3.241265 -1.196812 -2.000000
v 3.102598 -1.027845 -2.000000
v 2.933632 -0.889178 -2.000000
v 1.525723 -1.027845 -2.000000
v 0.294020 2.000000 -2.000000
v 0.294020 2.000000 2.000000
v 4.000000 -0.188461 2.000000
v 1.232939 -0.188461 2.000000
v 4.000000 -0.188461 -2.000000
v 1.232939 -0.188461 -2.000000
v -2.109411 2.000000 -2.000000
v -2.109411 2.000000 2.000000
v -4.000000 -0.140094 2.000000
v -3.027578 -0.140094 2.000000
v -4.000000 -0.140094 -2.000000
v -3.027578 -0.140094 -2.000000
vn -0.0000 1.0000 -0.0000
vn -0.0000 -0.0000 1.0000
vn -1.0000 -0.0000 -0.0000
vn -0.0000 -1.0000 -0.0000
vn 1.0000 -0.0000 -0.0000
vn -0.0000 -0.0000 -1.0000
vn -0.0980 -0.9952 -0.0001
vn -0.2903 -0.9569 -0.0001
vn -0.4714 -0.8819 -0.0001
vn -0.6344 -0.7730 -0.0001
vn -0.7730 -0.6344 -0.0001
vn -0.8819 -0.4714 -0.0001
vn -0.9569 -0.2903 -0.0000
vn -0.9952 -0.0980 -0.0000
vn -0.9952 0.0980 -0.0000
vn 0.9952 0.0980 -0.0000
vn 0.9952 -0.0980 -0.0000
vn 0.9569 -0.2903 -0.0000
vn 0.8819 -0.4714 -0.0001
vn 0.7730 -0.6344 -0.0001
vn 0.6344 -0.7730 -0.0001
vn 0.4714 -0.8819 -0.0001
vn 0.2903 -0.9569 -0.0001
vn 0.0980 -0.9952 -0.0001
vn -0.0000 0.0001 -1.0000
vn -0.0980 -0.9952 0.0001
vn -0.2903 -0.9569 0.0001
vn -0.4714 -0.8819 0.0001
vn -0.6344 -0.7730 0.0001
vn -0.7730 -0.6344 0.0001
vn -0.8819 -0.4714 0.0001
vn 0.8819 -0.4714 0.0001
vn 0.7730 -0.6344 0.0001
vn 0.6344 -0.7730 0.0001
vn 0.4714 -0.8819 0.0001
vn 0.2903 -0.9569 0.0001
vn 0.0980 -0.9952 0.0001
vn -0.0000 0.0001 1.0000
vn 0.9190 0.3943 -0.0000
vn -0.9190 0.3943 -0.0000
vt 0.400845 0.173573
vt 0.445562 0.173573
vt 0.445562 0.322417
vt 0.400845 0.322417
vt 0.114498 0.024729
vt 0.183707 0.024729
vt 0.183707 0.035686
vt 0.176871 0.035350
vt 0.168776 0.035748
vt 0.160993 0.036929
vt 0.153820 0.038846
vt 0.147532 0.041426
vt 0.142372 0.044569
vt 0.138538 0.048156
vt 0.136177 0.052048
vt 0.135380 0.056095
vt 0.136177 0.060142
vt 0.138538 0.064034
vt 0.142372 0.067621
vt 0.147532 0.070764
vt 0.153820 0.073344
vt 0.160993 0.075261
vt 0.168776 0.076442
vt 0.176871 0.076840
vt 0.183707 0.076504
vt 0.183707 0.121798
vt 0.176871 0.121462
vt 0.168776 0.121860
vt 0.160993 0.123041
vt 0.153820 0.124958
vt 0.147532 0.127538
vt 0.142372 0.130681
vt 0.138538 0.134268
vt 0.136177 0.138160
vt 0.135380 0.142207
vt 0.136177 0.146254
vt 0.138538 0.150146
vt 0.142372 0.153733
vt 0.147532 0.156876
vt 0.153820 0.159456
vt 0.160993 0.161373
vt 0.168776 0.162554
vt 0.176871 0.162953
vt 0.183707 0.162616
vt 0.183707 0.173573
vt 0.116298 0.173573
vt 0.116298 0.122090
vt 0.034863 0.104621
vt 0.034863 0.059904
vt 0.114498 0.042821
vt 0.400394 0.024729
vt 0.400394 0.173573
vt 0.332551 0.173573
vt 0.332551 0.024729
vt 0.045820 0.317626
vt 0.045820 0.322417
vt 0.034863 0.322417
vt 0.034863 0.173573
vt 0.045820 0.173573
vt 0.045820 0.178363
vt 0.086638 0.178363
vt 0.086638 0.173573
vt 0.131932 0.173573
vt 0.131932 0.178363
vt 0.172750 0.178363
vt 0.172750 0.173573
vt 0.183707 0.173573
vt 0.183707 0.322417
vt 0.172750 0.322417
vt 0.172750 0.317626
vt 0.131932 0.317626
vt 0.131932 0.322417
vt 0.086638 0.322417
vt 0.086638 0.317626
vt 0.334767 0.173573
vt 0.334767 0.322417
vt 0.194327 0.166737
vt 0.194664 0.173573
vt 0.183707 0.104364
vt 0.201799 0.104364
vt 0.218882 0.024729
vt 0.263599 0.024729
vt 0.281068 0.106164
vt 0.332551 0.106164
vt 0.321594 0.173573
vt 0.321930 0.166737
vt 0.321532 0.158642
vt 0.320351 0.150859
vt 0.318434 0.143686
vt 0.315854 0.137398
vt 0.312710 0.132238
vt 0.309124 0.128404
vt 0.305232 0.126043
vt 0.301185 0.125246
vt 0.297138 0.126043
vt 0.293246 0.128404
vt 0.289659 0.132238
vt 0.286516 0.137398
vt 0.283936 0.143686
vt 0.282019 0.150859
vt 0.280838 0.158642
vt 0.280439 0.166737
vt 0.280776 0.173573
vt 0.235482 0.173573
vt 0.235818 0.166737
vt 0.235420 0.158642
vt 0.234239 0.150859
vt 0.232322 0.143686
vt 0.229742 0.137398
vt 0.226598 0.132238
vt 0.223012 0.128404
vt 0.219120 0.126043
vt 0.215073 0.125246
vt 0.211026 0.126043
vt 0.207134 0.128404
vt 0.203547 0.132238
vt 0.200404 0.137398
vt 0.197824 0.143686
vt 0.195907 0.150859
vt 0.194726 0.158642
vt 0.253592 0.326308
vt 0.253592 0.330356
vt 0.248795 0.330356
vt 0.248795 0.326308
vt 0.253592 0.322417
vt 0.248795 0.322417
vt 0.210421 0.326885
vt 0.210420 0.322417
vt 0.215217 0.322417
vt 0.215217 0.326884
vt 0.210422 0.332564
vt 0.215217 0.332564
vt 0.210422 0.339238
vt 0.215217 0.339237
vt 0.210423 0.346648
vt 0.215217 0.346648
vt 0.210424 0.354512
vt 0.215217 0.354511
vt 0.210426 0.362525
vt 0.215217 0.362525
vt 0.210427 0.369159
vt 0.215217 0.369159
vt 0.205618 0.362525
vt 0.205617 0.369159
vt 0.200827 0.369159
vt 0.200827 0.362525
vt 0.205619 0.354512
vt 0.200827 0.354511
vt 0.205621 0.346649
vt 0.200827 0.346648
vt 0.205622 0.339238
vt 0.200827 0.339237
vt 0.205622 0.332564
vt 0.200827 0.332564
vt 0.205623 0.326885
vt 0.200827 0.326884
vt 0.205624 0.322417
vt 0.200827 0.322417
vt 0.253592 0.334403
vt 0.253592 0.338295
vt 0.248795 0.338295
vt 0.248795 0.334403
vt 0.047670 0.325575
vt 0.051561 0.323214
vt 0.055609 0.322417
vt 0.059656 0.323214
vt 0.063548 0.325575
vt 0.067134 0.329409
vt 0.070278 0.334569
vt 0.072858 0.340856
vt 0.074775 0.348030
vt 0.075956 0.355813
vt 0.076354 0.363908
vt 0.076017 0.370743
vt 0.035200 0.370743
vt 0.034863 0.363908
vt 0.035262 0.355813
vt 0.036442 0.348030
vt 0.038359 0.340856
vt 0.040939 0.334569
vt 0.044083 0.329409
vt 0.248795 0.330356
vt 0.248795 0.334403
vt 0.243998 0.334403
vt 0.243998 0.330356
vt 0.248794 0.338295
vt 0.243998 0.338295
vt 0.229607 0.322417
vt 0.234404 0.322417
vt 0.234403 0.326885
vt 0.229607 0.326884
vt 0.234403 0.332564
vt 0.229607 0.332564
vt 0.234402 0.339238
vt 0.229607 0.339237
vt 0.234401 0.346649
vt 0.229607 0.346648
vt 0.234400 0.354512
vt 0.229607 0.354511
vt 0.234399 0.362525
vt 0.229607 0.362525
vt 0.234398 0.369159
vt 0.229607 0.369159
vt 0.239201 0.369159
vt 0.234410 0.369159
vt 0.234409 0.362525
vt 0.239201 0.362525
vt 0.234408 0.354512
vt 0.239201 0.354511
vt 0.234407 0.346649
vt 0.239201 0.346648
vt 0.234406 0.339238
vt 0.239201 0.339237
vt 0.234405 0.332564
vt 0.239201 0.332564
vt 0.234404 0.326885
vt 0.239201 0.326884
vt 0.239201 0.322417
vt 0.248794 0.322417
vt 0.248795 0.326308
vt 0.243998 0.326308
vt 0.243998 0.322417
vt 0.085574 0.329409
vt 0.089161 0.325575
vt 0.093052 0.323214
vt 0.097100 0.322417
vt 0.101147 0.323214
vt 0.105039 0.325575
vt 0.108625 0.329409
vt 0.111769 0.334569
vt 0.114349 0.340856
vt 0.116266 0.348030
vt 0.117446 0.355813
vt 0.117845 0.363908
vt 0.117508 0.370743
vt 0.076691 0.370743
vt 0.076753 0.355813
vt 0.077933 0.348030
vt 0.079850 0.340856
vt 0.082430 0.334569
vt 0.260081 0.330356
vt 0.264878 0.330356
vt 0.264878 0.334403
vt 0.260081 0.334403
vt 0.264878 0.338295
vt 0.260081 0.338295
vt 0.220014 0.322417
vt 0.220013 0.326885
vt 0.220013 0.332564
vt 0.220012 0.339238
vt 0.220011 0.346649
vt 0.220010 0.354512
vt 0.220009 0.362525
vt 0.220008 0.369159
vt 0.205630 0.369159
vt 0.205629 0.362525
vt 0.210420 0.362525
vt 0.210420 0.369159
vt 0.205628 0.354512
vt 0.210420 0.354511
vt 0.205627 0.346649
vt 0.210420 0.346648
vt 0.205626 0.339238
vt 0.210420 0.339237
vt 0.205625 0.332564
vt 0.210420 0.332564
vt 0.205624 0.326885
vt 0.210420 0.326884
vt 0.210420 0.322417
vt 0.260081 0.322417
vt 0.264878 0.322417
vt 0.264878 0.326308
vt 0.260081 0.326308
vt 0.142638 0.323214
vt 0.146529 0.325575
vt 0.150116 0.329409
vt 0.153260 0.334569
vt 0.155840 0.340856
vt 0.157757 0.348030
vt 0.158937 0.355813
vt 0.159336 0.363908
vt 0.158999 0.370743
vt 0.118182 0.370743
vt 0.118244 0.355813
vt 0.119424 0.348030
vt 0.121341 0.340856
vt 0.123921 0.334569
vt 0.127065 0.329409
vt 0.130652 0.325575
vt 0.134543 0.323214
vt 0.138591 0.322417
vt 0.239201 0.326308
vt 0.243998 0.326308
vt 0.239201 0.330356
vt 0.239201 0.322417
vt 0.243997 0.322417
vt 0.220014 0.326885
vt 0.224811 0.322417
vt 0.224811 0.326884
vt 0.224811 0.332564
vt 0.220015 0.332564
vt 0.224811 0.339237
vt 0.220016 0.339238
vt 0.224811 0.346648
vt 0.220017 0.346649
vt 0.224811 0.354511
vt 0.220018 0.354512
vt 0.224811 0.362525
vt 0.220019 0.362525
vt 0.220020 0.369159
vt 0.224811 0.369159
vt 0.229602 0.362525
vt 0.229601 0.369159
vt 0.229603 0.354512
vt 0.229604 0.346649
vt 0.229605 0.339238
vt 0.229606 0.332564
vt 0.224811 0.326884
vt 0.229607 0.326885
vt 0.224811 0.322417
vt 0.229607 0.322417
vt 0.239201 0.334403
vt 0.243998 0.334403
vt 0.243997 0.338295
vt 0.239201 0.338295
vt 0.176034 0.323214
vt 0.180081 0.322417
vt 0.184129 0.323214
vt 0.188020 0.325575
vt 0.191607 0.329409
vt 0.194751 0.334569
vt 0.197331 0.340856
vt 0.199248 0.348030
vt 0.200428 0.355813
vt 0.200827 0.363908
vt 0.200490 0.370743
vt 0.159673 0.370743
vt 0.159735 0.355813
vt 0.160915 0.348030
vt 0.162832 0.340856
vt 0.165412 0.334569
vt 0.168556 0.329409
vt 0.172142 0.325575
vt 0.863017 0.906535
vt 0.863017 0.777711
vt 0.929118 0.777711
vt 0.929118 0.906535
vt 0.400394 0.173573
vt 0.400394 0.024729
vt 0.451876 0.024729
vt 0.451876 0.173573
vt 0.805750 0.866536
vt 0.805750 0.717692
vt 0.880436 0.717692
vt 0.880436 0.866536
vt 0.463655 0.173573
vt 0.463655 0.322417
s 0
f 164/1/1 158/2/1 157/3/1 163/4/1
f 165/5/2 8/6/2 83/7/2 84/8/2 85/9/2 86/10/2 87/11/2 88/12/2 96/13/2 90/14/2 89/15/2 94/16/2 91/17/2 93/18/2 92/19/2 95/20/2 110/21/2 109/22/2 108/23/2 98/24/2 100/25/2 99/26/2 97/27/2 104/28/2 105/29/2 106/30/2 107/31/2 101/32/2 73/33/2 74/34/2 75/35/2 77/36/2 76/37/2 82/38/2 81/39/2 80/40/2 79/41/2 78/42/2 102/43/2 103/44/2 4/45/2 159/46/2 160/47/2 158/48/2 164/49/2 166/50/2
f 6/51/3 8/52/3 165/53/3 167/54/3
f 117/55/4 118/56/4 2/57/4 4/58/4 103/59/4 121/60/4 120/61/4 99/62/4 100/63/4 122/64/4 119/65/4 83/66/4 8/67/4 6/68/4 112/69/4 111/70/4 113/71/4 114/72/4 116/73/4 115/74/4
f 159/75/5 4/1/5 2/4/5 161/76/5
f 133/77/6 112/78/6 6/67/6 167/79/6 168/80/6 163/81/6 157/82/6 162/83/6 161/84/6 2/53/6 118/85/6 150/86/6 151/87/6 152/88/6 153/89/6 154/90/6 155/91/6 147/92/6 148/93/6 146/94/6 149/95/6 144/96/6 145/97/6 156/98/6 143/99/6 142/100/6 140/101/6 139/102/6 116/103/6 114/104/6 138/105/6 141/106/6 135/107/6 136/108/6 134/109/6 137/110/6 131/111/6 130/112/6 132/113/6 129/114/6 128/115/6 127/116/6 126/117/6 125/118/6 124/119/6 123/120/6
f 3/121/7 1/122/7 132/123/7 130/124/7
f 5/125/8 3/121/8 130/124/8 131/126/8
f 7/127/9 5/128/9 131/129/9 137/130/9
f 9/131/10 7/127/10 137/130/10 134/132/10
f 10/133/11 9/131/11 134/132/11 136/134/11
f 11/135/12 10/133/12 136/134/12 135/136/12
f 12/137/13 11/135/13 135/136/13 141/138/13
f 13/139/14 12/137/14 141/138/14 138/140/14
f 113/141/15 13/139/15 138/140/15 114/142/15
f 14/143/16 111/144/16 112/145/16 133/146/16
f 15/147/17 14/143/17 133/146/17 123/148/17
f 16/149/18 15/147/18 123/148/18 124/150/18
f 17/151/19 16/149/19 124/150/19 125/152/19
f 18/153/20 17/151/20 125/152/20 126/154/20
f 19/155/21 18/153/21 126/154/21 127/156/21
f 20/157/22 19/155/22 127/156/22 128/158/22
f 21/159/23 20/160/23 128/161/23 129/162/23
f 1/122/24 21/159/24 129/162/24 132/123/24
f 20/163/25 21/164/25 1/165/25 3/166/25 5/167/25 7/168/25 9/169/25 10/170/25 11/171/25 12/172/25 13/173/25 113/174/25 111/175/25 14/176/25 15/177/25 16/178/25 17/179/25 18/180/25 19/181/25
f 22/182/24 23/183/24 149/184/24 146/185/24
f 23/183/23 24/186/23 144/187/23 149/184/23
f 144/188/22 24/189/22 25/190/22 145/191/22
f 145/191/21 25/190/21 26/192/21 156/193/21
f 156/193/20 26/192/20 27/194/20 143/195/20
f 143/195/19 27/194/19 28/196/19 142/197/19
f 142/197/18 28/196/18 29/198/18 140/199/18
f 140/199/17 29/198/17 30/200/17 139/201/17
f 139/201/16 30/200/16 115/202/16 116/203/16
f 118/204/15 117/205/15 31/206/15 150/207/15
f 150/207/14 31/206/14 32/208/14 151/209/14
f 151/209/13 32/208/13 33/210/13 152/211/13
f 152/211/12 33/210/12 34/212/12 153/213/12
f 153/213/11 34/212/11 35/214/11 154/215/11
f 154/215/10 35/214/10 36/216/10 155/217/10
f 155/217/9 36/216/9 37/189/9 147/218/9
f 37/219/8 38/220/8 148/221/8 147/222/8
f 38/220/7 22/182/7 146/185/7 148/221/7
f 25/223/25 24/224/25 23/225/25 22/226/25 38/227/25 37/228/25 36/229/25 35/230/25 34/231/25 33/232/25 32/233/25 31/234/25 117/235/25 115/236/25 30/173/25 29/237/25 28/238/25 27/239/25 26/240/25
f 94/241/26 39/242/26 40/243/26 91/244/26
f 91/244/27 40/243/27 41/245/27 93/246/27
f 41/247/28 42/248/28 92/130/28 93/129/28
f 42/248/29 43/249/29 95/132/29 92/130/29
f 43/249/30 44/250/30 110/134/30 95/132/30
f 44/250/31 45/251/31 109/136/31 110/134/31
f 45/251/13 46/252/13 108/138/13 109/136/13
f 46/252/14 47/253/14 98/140/14 108/138/14
f 100/142/15 98/140/15 47/253/15 122/254/15
f 119/255/16 48/256/16 84/257/16 83/258/16
f 48/256/17 49/259/17 85/260/17 84/257/17
f 49/259/18 50/261/18 86/262/18 85/260/18
f 50/261/32 51/263/32 87/264/32 86/262/32
f 51/263/33 52/265/33 88/266/33 87/264/33
f 52/265/34 53/267/34 96/268/34 88/266/34
f 53/267/35 54/157/35 90/269/35 96/268/35
f 90/270/36 54/271/36 55/272/36 89/273/36
f 89/273/37 55/272/37 39/242/37 94/241/37
f 55/274/38 54/275/38 53/276/38 52/277/38 51/278/38 50/279/38 49/280/38 48/281/38 119/282/38 122/283/38 47/234/38 46/284/38 45/285/38 44/286/38 43/287/38 42/288/38 41/289/38 40/290/38 39/291/38
f 74/292/37 57/293/37 56/185/37 75/294/37
f 73/295/36 58/296/36 57/293/36 74/292/36
f 59/297/35 58/247/35 73/298/35 101/299/35
f 107/300/34 60/301/34 59/297/34 101/299/34
f 106/302/33 61/303/33 60/301/33 107/300/33
f 105/304/32 62/305/32 61/303/32 106/302/32
f 104/306/18 63/307/18 62/305/18 105/304/18
f 97/308/17 64/309/17 63/307/17 104/306/17
f 120/310/16 64/309/16 97/308/16 99/311/16
f 102/308/15 65/312/15 121/313/15 103/311/15
f 78/306/14 66/314/14 65/312/14 102/308/14
f 79/304/13 67/315/13 66/314/13 78/306/13
f 80/302/31 68/316/31 67/315/31 79/304/31
f 81/300/30 69/317/30 68/316/30 80/302/30
f 82/318/29 70/319/29 69/317/29 81/300/29
f 76/320/28 71/321/28 70/319/28 82/318/28
f 77/322/27 72/323/27 71/324/27 76/325/27
f 75/294/26 56/185/26 72/323/26 77/322/26
f 72/326/38 56/327/38 57/328/38 58/329/38 59/330/38 60/331/38 61/332/38 62/333/38 63/334/38 64/335/38 120/336/38 121/337/38 65/281/38 66/338/38 67/339/38 68/340/38 69/341/38 70/342/38 71/343/38
f 157/344/39 158/345/39 160/346/39 162/347/39
f 162/348/1 160/349/1 159/350/1 161/351/1
f 164/352/40 163/353/40 168/354/40 166/355/40
f 166/356/1 168/357/1 167/3/1 165/2/1
